<?xml version="1.0" encoding="UTF-8" standalone="no"?>
<!-- Generator: Adobe Illustrator 16.0.0, SVG Export Plug-In . SVG Version: 6.00 Build 0)  -->

<svg
   xmlns:dc="http://purl.org/dc/elements/1.1/"
   xmlns:cc="http://creativecommons.org/ns#"
   xmlns:rdf="http://www.w3.org/1999/02/22-rdf-syntax-ns#"
   xmlns:svg="http://www.w3.org/2000/svg"
   xmlns="http://www.w3.org/2000/svg"
   xmlns:sodipodi="http://sodipodi.sourceforge.net/DTD/sodipodi-0.dtd"
   xmlns:inkscape="http://www.inkscape.org/namespaces/inkscape"
   version="1.1"
   id="Layer_1"
   x="0px"
   y="0px"
   width="256px"
   height="256px"
   viewBox="0 0 256 256"
   style="enable-background:new 0 0 256 256;"
   xml:space="preserve"
   inkscape:version="0.91 r13725"
   sodipodi:docname="jquery-hollow.svg"><metadata
     id="metadata7"><rdf:RDF><cc:Work
         rdf:about=""><dc:format>image/svg+xml</dc:format><dc:type
           rdf:resource="http://purl.org/dc/dcmitype/StillImage" /><dc:title></dc:title></cc:Work></rdf:RDF></metadata><defs
     id="defs5" /><sodipodi:namedview
     pagecolor="#ffffff"
     bordercolor="#666666"
     borderopacity="1"
     objecttolerance="10"
     gridtolerance="10"
     guidetolerance="10"
     inkscape:pageopacity="0"
     inkscape:pageshadow="2"
     inkscape:window-width="1366"
     inkscape:window-height="707"
     id="namedview3"
     showgrid="false"
     inkscape:zoom="0.921875"
     inkscape:cx="171.38983"
     inkscape:cy="128"
     inkscape:window-x="0"
     inkscape:window-y="0"
     inkscape:window-maximized="1"
     inkscape:current-layer="Layer_1" /><path
     style="fill:#000000"
     d="M 113.43597,254.90067 C 94.119245,251.6757 68.496505,238.41165 49.509018,221.80777 7.0371029,184.66769 -11.194788,120.9101 7.0469699,73.316477 11.40619,61.94308 30.856566,33.646095 34.315032,33.646095 c 2.442585,0 2.447203,-0.02542 -2.835047,15.628208 -10.971655,32.513888 -4.393786,72.065907 17.713671,106.510417 7.857869,12.24294 26.206499,30.83328 39.526559,40.04725 24.225045,16.75734 47.653815,24.29644 75.567995,24.31692 29.4887,0.0216 53.35813,-9.06466 71.76417,-27.31833 13.98658,-13.87077 17.53879,-13.26851 9.42536,1.59803 -15.61752,28.61658 -41.09316,49.48986 -70.91149,58.10073 -11.10652,3.20734 -47.63546,4.62434 -61.13028,2.37135 z m 57.96781,-5.71895 c 12.97322,-3.65409 32.98691,-14.40211 43.52736,-23.37565 4.80706,-4.09246 12.20677,-12.11877 16.44381,-17.83624 l 7.70369,-10.39537 -7.92031,6.03245 c -9.96306,7.58827 -23.14623,13.80823 -36.63427,17.28438 -13.81804,3.56121 -46.0908,3.58521 -61.27612,0.0456 C 107.80364,215.0059 81.481695,199.40857 62.195395,178.83395 39.305213,154.41475 27.353017,128.88536 23.526359,96.238623 21.975008,83.003475 23.164161,62.027086 25.983729,52.890762 28.027636,46.267847 17.188522,61.342071 12.387015,71.800044 -1.2908641,101.59131 0.72625692,137.10183 18.125058,172.81546 c 15.928043,32.6947 43.311587,58.31554 77.126677,72.162 6.818465,2.792 16.424475,5.75124 21.346705,6.57611 12.68164,2.12518 43.58818,0.7876 54.80534,-2.37185 z M 147.31292,170.19905 C 115.56057,161.13337 87.005525,132.1613 77.162225,99.023815 c -4.22071,-14.208948 -4.5653,-37.180904 -0.767,-51.12873 3.02859,-11.121327 17.47241,-36.041564 20.88976,-36.041564 2.767815,0 2.779465,-0.128024 -1.0994,12.078806 -7.66922,24.135149 -2.71906,51.846827 13.589545,76.076023 34.09374,50.65203 101.40793,61.8259 136.21309,22.61082 C 252.06091,115.77707 256,113.92855 256,117.9209 c 0,4.71199 -12.38218,23.92623 -20.63035,32.01346 -10.16161,9.96333 -22.40467,16.7592 -36.57101,20.29977 -12.54941,3.13647 -40.44401,3.11745 -51.48572,-0.035 z m 48.32325,-3.31762 c 18.39475,-4.59738 36.66548,-16.88266 46.18396,-31.05422 l 3.23229,-4.81237 -8.08592,5.76873 c -17.57429,12.53801 -47.29467,16.75609 -71.09704,10.09049 -30.47305,-8.53366 -58.95109,-34.51178 -70.304205,-64.132601 -4.56052,-11.898624 -7.3866,-32.028742 -6.2115,-44.244215 l 0.86983,-9.04203 -3.2866,4.190881 c -5.30845,6.769058 -9.78652,24.440358 -9.77091,38.558 0.0454,41.060825 32.530775,82.999495 73.309325,94.642255 10.95393,3.12746 32.72005,3.14438 45.16077,0.035 z m -7.26904,-67.819435 c -18.68854,-3.042909 -38.38577,-18.905868 -47.20161,-38.013309 -3.95032,-8.561943 -4.52366,-11.708104 -4.53546,-24.888064 -0.0105,-13.221853 0.54552,-16.294104 4.50797,-24.849209 4.1779,-9.0202505 7.80509,-12.9321025 9.916,-10.69421548 0.47332,0.50177898 0.0404,5.09984998 -0.96167,10.21793548 -3.34801,17.097364 4.3673,37.7935 19.66015,52.737885 21.40101,20.913351 56.32895,24.417776 71.0755,7.131197 3.20078,-3.752122 7.26579,-4.724305 7.26579,-1.737681 0,3.775978 -9.8698,16.762807 -16.25268,21.385476 -11.3672,8.232477 -27.07663,11.37986 -43.47399,8.709985 z m 28.10193,-5.462784 c 4.83922,-1.543729 18.97484,-10.528079 18.97484,-12.060087 0,-0.308059 -2.66834,0.449434 -5.92964,1.683314 -12.33945,4.668473 -34.81526,1.904333 -49.61909,-6.1023 -13.00703,-7.034843 -26.99169,-24.271834 -31.25531,-38.524175 -0.97839,-3.270531 -2.35794,-10.436935 -3.06568,-15.925343 l -1.28678,-9.978922 -2.83847,9.918996 c -5.22204,18.248384 0.41453,37.479412 15.75037,53.737757 16.63789,17.638665 38.29443,23.941909 59.26976,17.25076 z"
     id="path3405"
     inkscape:connector-curvature="0" /></svg>