<?xml version="1.0" encoding="UTF-8" standalone="no"?>
<!-- Generator: Adobe Illustrator 16.0.0, SVG Export Plug-In . SVG Version: 6.00 Build 0)  -->

<svg
   xmlns:dc="http://purl.org/dc/elements/1.1/"
   xmlns:cc="http://creativecommons.org/ns#"
   xmlns:rdf="http://www.w3.org/1999/02/22-rdf-syntax-ns#"
   xmlns:svg="http://www.w3.org/2000/svg"
   xmlns="http://www.w3.org/2000/svg"
   xmlns:sodipodi="http://sodipodi.sourceforge.net/DTD/sodipodi-0.dtd"
   xmlns:inkscape="http://www.inkscape.org/namespaces/inkscape"
   version="1.1"
   id="Layer_1"
   x="0px"
   y="0px"
   width="256px"
   height="256px"
   viewBox="0 0 256 256"
   style="enable-background:new 0 0 256 256;"
   xml:space="preserve"
   inkscape:version="0.91 r13725"
   sodipodi:docname="jquery.svg"><metadata
     id="metadata3485"><rdf:RDF><cc:Work
         rdf:about=""><dc:format>image/svg+xml</dc:format><dc:type
           rdf:resource="http://purl.org/dc/dcmitype/StillImage" /><dc:title></dc:title></cc:Work></rdf:RDF></metadata><defs
     id="defs3483" /><sodipodi:namedview
     pagecolor="#ffffff"
     bordercolor="#666666"
     borderopacity="1"
     objecttolerance="10"
     gridtolerance="10"
     guidetolerance="10"
     inkscape:pageopacity="0"
     inkscape:pageshadow="2"
     inkscape:window-width="1366"
     inkscape:window-height="707"
     id="namedview3481"
     showgrid="false"
     inkscape:zoom="0.921875"
     inkscape:cx="-60.745763"
     inkscape:cy="84.610169"
     inkscape:window-x="0"
     inkscape:window-y="0"
     inkscape:window-maximized="1"
     inkscape:current-layer="Layer_1" /><path
     inkscape:connector-curvature="0"
     id="path5834"
     d="m 135.4541,255.98524 c -8.84577,-0.34703 -17.1189,-1.25258 -25.60086,-2.80219 -2.46708,-0.4507 -2.49877,-0.45913 -6.30022,-1.674 -7.181169,-2.29493 -12.572955,-4.38137 -18.55063,-7.17837 l -2.350085,-1.09965 -3.500119,-1.8368 c -9.604096,-5.04015 -17.803864,-10.52425 -26.350893,-17.62377 -3.571329,-2.96654 -6.069284,-5.24636 -9.863542,-9.00234 l -2.513296,-2.48794 -2.248605,-2.462 c -3.045135,-3.3341 -4.790144,-5.3875 -7.435732,-8.74984 C 18.675375,185.73494 9.8424611,168.34648 4.7387554,149.88206 2.0766814,140.25111 0.53155181,130.52042 0.10134197,120.67729 L 0.00140083,118.3908 6.9982813e-4,115.84449 0,113.29816 0.10179638,111.06363 C 0.94306825,92.596054 5.9561997,76.090662 15.074253,61.767889 l 1.046037,-1.643126 8.615147,-11.354488 c 4.738332,-6.244976 8.737986,-11.515405 8.88812,-11.712074 l 0.272981,-0.357578 -1.041796,2.234529 C 26.62172,52.304206 23.428383,66.462487 23.044546,82.430481 l -0.06496,2.702228 0.111501,3.014017 c 0.336789,9.102947 1.419496,17.029134 3.517588,25.751234 5.391603,22.41384 16.478537,43.22562 32.651414,61.29143 2.93072,3.27376 7.552437,7.94724 10.643901,10.76314 14.432323,13.14585 30.72088,23.10345 48.74948,29.80175 3.83138,1.42351 9.43172,3.19804 12.1891,3.86228 8.55002,2.05962 18.39629,3.45269 27.56225,3.89955 l 2.15005,0.10475 4.36048,0 4.3605,0 2.03973,-0.10475 c 22.05572,-1.13197 41.38681,-7.33207 57.19253,-18.3434 4.37607,-3.04867 7.82833,-5.91242 11.86968,-9.84619 l 1.82024,-1.7718 1.69552,-1.88183 c 2.17836,-2.41767 3.33805,-3.8201 5.64097,-6.82174 l 0.27663,-0.36058 -0.15617,0.41573 c -0.7852,2.08969 -2.98199,6.76346 -4.49424,9.56171 -4.27231,7.90545 -9.60752,15.59926 -15.49519,22.34526 -1.555,1.78172 -5.64103,6.04509 -7.40853,7.73005 -18.06799,17.22456 -40.31412,27.55048 -65.85224,30.56654 -2.08094,0.24576 -5.84841,0.57582 -8.35029,0.73152 l -1.80006,0.11208 -4.95016,0.0333 c -2.72259,0.0183 -5.35517,0.0174 -5.8502,-0.001 z m 33.20114,-82.98278 c -5.91067,-0.3321 -14.1656,-1.3065 -17.55061,-2.07171 l -0.85003,-0.19215 -2.85008,-0.95887 c -6.63093,-2.23087 -11.34766,-4.21248 -16.70058,-7.01644 -8.22231,-4.30697 -16.01008,-9.81328 -23.15079,-16.36855 l -1.50004,-1.37707 -4.312,-4.49718 -4.312024,-4.49716 -0.824013,-1.02138 c -2.267263,-2.81033 -6.686979,-9.4197 -9.127191,-13.64909 -5.79793,-10.04899 -9.485237,-19.76991 -11.517193,-30.363023 L 75.515013,88.66638 75.211912,86.483828 c -0.57455,-4.13735 -0.788507,-6.825753 -0.876741,-11.016738 l -0.06127,-2.910095 0.11843,-2.442386 0.118455,-2.44239 0.197416,-2.016502 c 1.157189,-11.82006 4.70916,-22.612682 10.59227,-32.184518 0.424143,-0.690092 3.507687,-5.273473 6.852313,-10.185288 3.344624,-4.911808 6.39583,-9.398257 6.780444,-9.96988 0.783327,-1.16419 1.015822,-1.451227 0.673424,-0.831451 -2.50741,4.538711 -4.653229,9.692206 -6.101806,14.654344 -1.693514,5.801208 -2.731709,11.874302 -3.100393,18.13605 l -0.100961,1.714871 0,3.014015 0,3.014014 0.100011,1.71487 c 0.723209,12.397367 3.856915,24.207106 9.500682,35.804397 l 1.264434,2.598301 1.16896,2.114112 c 4.74783,8.586576 10.26041,15.954956 17.42962,23.297266 l 2.48642,2.54646 1.55004,1.41335 c 7.20804,6.57236 14.19299,11.54369 22.30076,15.87188 6.383,3.40741 12.90699,6.06999 20.02235,8.17148 l 2.27175,0.67097 2.4284,0.57258 c 5.10599,1.20393 9.27481,1.85731 15.12886,2.37107 l 1.50004,0.13173 4.95017,-0.001 4.95016,-0.001 2.05009,-0.18509 c 9.57158,-0.86421 17.77826,-2.94015 26.05086,-6.58973 l 1.80005,-0.79413 2.5001,-1.31321 2.50008,-1.31322 1.50004,-0.91583 c 8.20225,-5.00777 15.24436,-11.48415 20.63739,-18.9795 0.63984,-0.88926 1.26279,-1.75448 1.3843,-1.92272 l 0.22094,-0.3059 -0.18557,0.57163 c -0.70276,2.1648 -1.6455,4.45746 -3.05568,7.4311 l -1.13358,2.39044 -1.09225,1.97468 c -10.56715,19.10479 -27.0845,32.63463 -47.32657,38.76663 -6.70156,2.03011 -12.89174,3.14796 -21.05071,3.80137 l -1.40004,0.11208 -5.25018,0.0346 -5.25017,0.0346 -1.60007,-0.0899 z m 28.25095,-72.6543 c -2.92983,-0.21595 -6.34705,-0.667275 -9.40031,-1.241486 l -1.65006,-0.310341 -2.10008,-0.684365 C 178.17958,96.294824 173.37118,94.052483 168.55523,91.023421 153.00183,81.240839 141.8955,65.509756 138.60438,48.600782 l -0.39448,-2.026663 -0.1974,-1.558974 c -0.10856,-0.857433 -0.25024,-2.280443 -0.31484,-3.162242 l -0.11745,-1.603266 0.0521,-3.177584 0.0522,-3.17758 0.1611,-1.403076 c 0.0887,-0.771692 0.27406,-2.104613 0.41215,-2.962048 l 0.25109,-1.558973 0.45529,-1.922734 0.45529,-1.922732 0.52912,-1.662906 c 1.29311,-4.064149 3.05351,-7.897346 5.20266,-11.328535 0.54791,-0.874778 4.27265,-6.2638918 7.58221,-10.97028023 0.26216,-0.37280278 0.19708,-0.21971311 -0.7087,1.66691123 l -0.82258,1.71337 -0.58954,1.5604728 c -1.39605,3.6952117 -2.23169,7.1235622 -2.75304,11.2948902 l -0.15153,1.212033 -0.11695,2.243684 -0.11696,2.243694 0.11522,2.208545 c 0.3022,5.792581 1.2819,10.844901 3.15904,16.291266 5.05849,14.676847 15.42992,27.653529 28.507,35.667859 4.34097,2.660359 8.65428,4.670195 13.75046,6.407223 l 1.85007,0.630593 1.82666,0.469121 c 4.68718,1.203753 9.9829,2.059787 14.49504,2.343081 l 1.72117,0.108075 2.04599,0 2.04599,0 1.53298,-0.107964 c 2.95695,-0.208273 5.73583,-0.6391 8.35476,-1.295257 l 1.42463,-0.356922 1.55619,-0.530384 c 4.68267,-1.595947 8.64032,-3.847404 12.31572,-7.006319 l 1.08248,-0.930374 1.3512,-1.408096 c 1.41251,-1.472003 2.63205,-2.932798 3.57988,-4.288039 0.30822,-0.440732 0.58004,-0.780931 0.60402,-0.756009 0.024,0.02491 -0.004,0.1049 -0.0589,0.177733 -0.0564,0.07284 -0.71438,1.244086 -1.46232,2.602756 -0.7479,1.358682 -1.75046,3.106229 -2.22789,3.883458 -9.13222,14.866369 -22.01988,22.859865 -38.93727,24.15054 l -1.35005,0.10288 -3.3501,-0.0149 -3.35012,-0.0149 -1.15004,-0.0848 z"
     style="fill:#000000" /></svg>